<svg width="94" height="26" viewBox="0 0 94 26" fill="none" xmlns="http://www.w3.org/2000/svg">
<g clip-path="url(#clip0_9_7)">
<g filter="url(#filter0_d_9_7)">
<path d="M14.94 6.86L15.74 9.54L10 11.7L9.98 11.84L14.76 13.98L13 16.66L6.92 13.58L7.56 9.94L14.94 6.86ZM25.9522 12.94L25.9722 12.56H25.8122L24.8722 18H21.0722L23.2722 5.5H27.0722L26.1722 10.6H26.3322C26.4389 10.1733 26.5589 9.85333 26.6922 9.64L29.2122 5.5H33.3122L29.3922 11.64L31.2122 18H27.1122L26.0122 13.52C25.9722 13.3867 25.9522 13.1933 25.9522 12.94ZM20.4722 17.94L11.9922 17.04H20.6322L20.4722 17.94ZM21.1522 14.08L12.6722 13.18H21.3122L21.1522 14.08ZM21.4922 12.16L13.0122 11.26H21.6522L21.4922 12.16ZM21.8322 10.24L13.3522 9.34H21.9922L21.8322 10.24ZM22.1722 8.32L13.6922 7.42H22.3122L22.1722 8.32ZM20.8122 16L12.3322 15.1H20.9722L20.8122 16ZM22.4922 6.4L14.0322 5.5H22.6522L22.4922 6.4ZM46.0819 17.4C44.4552 18 42.8219 18.3 41.1819 18.3C39.5419 18.3 38.3552 17.9733 37.6219 17.32C36.9019 16.6667 36.5419 15.66 36.5419 14.3C36.5419 13.7267 36.6352 12.88 36.8219 11.76C37.2219 9.44 37.9285 7.76667 38.9419 6.74C39.9552 5.71333 41.6352 5.2 43.9819 5.2C44.4885 5.2 45.1219 5.25333 45.8819 5.36C46.6419 5.46667 47.2019 5.58667 47.5619 5.72L46.4619 8.78C45.4619 8.59333 44.5419 8.5 43.7019 8.5C42.8752 8.5 42.2819 8.56667 41.9219 8.7C41.5619 8.83333 41.3485 9.1 41.2819 9.5L40.3019 15.16H41.5619C42.0152 15.16 42.3485 15.1133 42.5619 15.02C42.7885 14.9133 42.9352 14.68 43.0019 14.32L43.1019 13.78H42.1419L42.6819 10.72H47.2619L46.0819 17.4ZM36.2619 11.66C36.2352 11.7667 36.2085 11.9133 36.1819 12.1L28.3219 11.26H36.3219L36.2619 11.66ZM36.0419 13.18C36.0019 13.4867 35.9819 13.7667 35.9819 14.02L28.1019 13.18H36.0419ZM36.8019 9.34L36.5619 10.16L28.8019 9.34H36.8019ZM36.0019 15.1C36.0552 15.4733 36.1019 15.7533 36.1419 15.94L28.3619 15.1H36.0019ZM37.6219 7.42C37.4352 7.76667 37.3019 8.03333 37.2219 8.22L29.7419 7.42H37.6219ZM36.6019 17.04C36.7752 17.3467 36.9752 17.5933 37.2019 17.78L30.2819 17.04H36.6019ZM39.5219 5.5C39.1352 5.74 38.8352 5.96 38.6219 6.16L32.5019 5.5H39.5219ZM62.4739 8.7H59.7139L58.0939 18H54.2939L55.9139 8.7H53.1739L53.7539 5.5H63.0539L62.4739 8.7ZM53.6739 17.94L45.1939 17.04H53.8339L53.6739 17.94ZM54.3539 14.08L45.8739 13.18H54.5139L54.3539 14.08ZM54.6939 12.16L46.2139 11.26H54.8539L54.6939 12.16ZM55.0339 10.24L46.5539 9.34H55.1939L55.0339 10.24ZM54.0139 16L45.5339 15.1H54.1739L54.0139 16ZM52.6339 8.32L44.1539 7.42H52.7739L52.6339 8.32ZM52.9539 6.4L44.4939 5.5H53.1139L52.9539 6.4ZM66.6652 18.8H65.2452L73.0252 5.2C73.0918 5.06667 73.1518 4.97333 73.2052 4.92C73.3518 4.77333 73.5785 4.7 73.8852 4.7H75.3052L67.5252 18.3C67.4585 18.4333 67.3985 18.5267 67.3452 18.58C67.1985 18.7267 66.9718 18.8 66.6652 18.8ZM65.1052 17.94L59.2852 17.04H65.5852L65.1052 17.94ZM67.3052 14.08L61.4852 13.18H67.7852L67.3052 14.08ZM68.4052 12.16L62.5852 11.26H68.8852L68.4052 12.16ZM69.5052 10.24L63.6852 9.34H69.9852L69.5052 10.24ZM70.6052 8.32L64.7852 7.42H71.0652L70.6052 8.32ZM66.2052 16L60.3852 15.1H66.6852L66.2052 16ZM71.6852 6.4L65.8652 5.5H72.1452L71.6852 6.4ZM77.5125 16.66L76.7125 13.98L82.4525 11.82L82.4725 11.68L77.6925 9.54L79.4525 6.86L85.5325 9.94L84.8925 13.58L77.5125 16.66Z" fill="#312A2A"/>
</g>
<path d="M5.165 23.38L5.58 21.035L6.205 20.5H7.91L8.415 21.105L8.325 21.6H7.645L7.695 21.315L7.505 21.08H6.505L6.205 21.335L5.88 23.165L6.09 23.42H7.09L7.365 23.185L7.42 22.9H8.1L7.995 23.475L7.38 24H5.675L5.165 23.38ZM12.2914 23.38L12.7064 21.035L13.3314 20.5H15.1314L15.6414 21.115L15.2214 23.485L14.6114 24H12.8014L12.2914 23.38ZM14.2964 23.42L14.5964 23.165L14.9214 21.335L14.7114 21.08H13.6364L13.3364 21.335L13.0064 23.165L13.2164 23.42H14.2964ZM20.2023 20.5H22.3973L22.9273 21.14L22.5123 23.485L21.9023 24H19.5873L20.2023 20.5ZM21.5873 23.42L21.8873 23.165L22.2123 21.335L22.0023 21.08H20.7823L20.3673 23.42H21.5873ZM27.5197 20.5H28.1997L27.5797 24H26.8997L27.5197 20.5ZM32.7266 20.5H33.3366L34.4816 22.875H34.4916L34.9066 20.5H35.5616L34.9416 24H34.3316L33.1966 21.63H33.1866L32.7666 24H32.1116L32.7266 20.5ZM39.5029 23.38L39.9229 21.035L40.5479 20.5H42.2779L42.7829 21.105L42.6929 21.6H42.0129L42.0629 21.315L41.8729 21.08H40.8479L40.5479 21.335L40.2179 23.165L40.4279 23.42H41.4729L41.7579 23.18L41.8529 22.63H41.1079L41.2079 22.05H42.6129L42.3629 23.485L41.7479 24H40.0129L39.5029 23.38ZM53.4791 20.5H54.0991L54.7641 24H54.0741L53.9341 23.225H52.7041L52.2741 24H51.5841L53.4791 20.5ZM53.8691 22.665L53.6441 21.335H53.6341L52.9441 22.665H53.8691ZM59.5865 20.5H61.7815L62.3115 21.14L61.8965 23.485L61.2865 24H58.9715L59.5865 20.5ZM60.9715 23.42L61.2715 23.165L61.5965 21.335L61.3865 21.08H60.1665L59.7515 23.42H60.9715ZM66.8789 20.5H69.0739L69.6039 21.14L69.1889 23.485L68.5789 24H66.2639L66.8789 20.5ZM68.2639 23.42L68.5639 23.165L68.8889 21.335L68.6789 21.08H67.4589L67.0439 23.42H68.2639ZM74.1963 20.5H74.8763L74.2563 24H73.5763L74.1963 20.5ZM78.8431 23.38L79.2581 21.035L79.8831 20.5H81.5881L82.0931 21.105L82.0031 21.6H81.3231L81.3731 21.315L81.1831 21.08H80.1831L79.8831 21.335L79.5581 23.165L79.7681 23.42H80.7681L81.0431 23.185L81.0981 22.9H81.7781L81.6731 23.475L81.0581 24H79.3531L78.8431 23.38ZM87.2001 21.075H86.1551L86.2551 20.5H89.0251L88.9201 21.075H87.8801L87.3651 24H86.6851L87.2001 21.075Z" fill="#046A5E"/>
</g>
<defs>
<filter id="filter0_d_9_7" x="6.92" y="-0.299988" width="84.6125" height="19.1" filterUnits="userSpaceOnUse" color-interpolation-filters="sRGB">
<feFlood flood-opacity="0" result="BackgroundImageFix"/>
<feColorMatrix in="SourceAlpha" type="matrix" values="0 0 0 0 0 0 0 0 0 0 0 0 0 0 0 0 0 0 127 0" result="hardAlpha"/>
<feOffset dx="4" dy="-3"/>
<feGaussianBlur stdDeviation="1"/>
<feComposite in2="hardAlpha" operator="out"/>
<feColorMatrix type="matrix" values="0 0 0 0 0.1625 0 0 0 0 0.173 0 0 0 0 0.2 0 0 0 0.36 0"/>
<feBlend mode="normal" in2="BackgroundImageFix" result="effect1_dropShadow_9_7"/>
<feBlend mode="normal" in="SourceGraphic" in2="effect1_dropShadow_9_7" result="shape"/>
</filter>
<clipPath id="clip0_9_7">
<rect width="94" height="26" fill="white"/>
</clipPath>
</defs>
</svg>
